<svg width="33" height="33" viewBox="0 0 33 33" fill="none" xmlns="http://www.w3.org/2000/svg">
<path d="M32.551 0.394198C32.2704 0.112628 31.9337 0 31.5969 0H22C21.6071 0 21.3265 0.112628 21.0459 0.394198C20.7653 0.675768 20.6531 1.01365 20.6531 1.35154C20.6531 1.74573 20.7653 2.0273 21.0459 2.30887L24.1327 5.40614L16.5 13.0648L17.0051 13.5717L19.4745 16.0495L19.9796 16.5563L27.6122 8.89761L30.699 11.9949C30.9796 12.2765 31.3163 12.3891 31.6531 12.3891C32.0459 12.3891 32.3265 12.2765 32.6071 11.9949C32.8878 11.7133 33 11.3754 33 11.0375V1.40785C32.9439 0.957338 32.7755 0.619454 32.551 0.394198Z" fill="#747474"/>
<path d="M13.5255 17.0068L13.0204 16.5L5.38776 24.1587L2.30102 21.0614C2.02041 20.7799 1.68367 20.6672 1.34694 20.6672C0.954082 20.6672 0.673469 20.7799 0.392857 21.0614C0.112245 21.343 0 21.6809 0 22.0188V31.6485C0 32.0427 0.112245 32.3242 0.392857 32.6058C0.673469 32.8874 1.0102 33 1.34694 33H10.9439C11.3367 33 11.6173 32.8874 11.898 32.6058C12.1786 32.3242 12.2908 31.9864 12.2908 31.6485C12.2908 31.3106 12.1786 30.9727 11.898 30.6911L8.81122 27.5939L15.9388 20.442L16.4439 19.9352L15.9388 19.4283L13.5255 17.0068Z" fill="#747474"/>
</svg>
